<?xml version="1.0" encoding="UTF-8" standalone="no"?>
<svg width="144px" height="273px" viewBox="0 0 144 273" version="1.1" xmlns="http://www.w3.org/2000/svg" xmlns:xlink="http://www.w3.org/1999/xlink">
    <!-- Generator: Sketch 39.1 (31720) - http://www.bohemiancoding.com/sketch -->
    <title>Page 1</title>
    <desc>Created with Sketch.</desc>
    <defs></defs>
    <g id="Page-1" stroke="none" stroke-width="1" fill="none" fill-rule="evenodd">
        <g id="Desktop-HD" transform="translate(-1009.000000, -1184.000000)" fill="#BEBBC8">
            <path d="M1023.39,1427.398 L1138.513,1427.398 L1138.513,1219.794 L1023.39,1219.794 L1023.39,1427.398 Z M1034.183,1198.317 C1036.168,1198.317 1037.781,1199.922 1037.781,1201.897 C1037.781,1203.875 1036.168,1205.475 1034.183,1205.475 C1032.194,1205.475 1030.585,1203.875 1030.585,1201.897 C1030.585,1199.922 1032.194,1198.317 1034.183,1198.317 L1034.183,1198.317 Z M1059.366,1198.317 L1102.537,1198.317 L1102.537,1191.158 L1059.366,1191.158 L1059.366,1198.317 Z M1073.756,1448.874 L1088.147,1448.874 L1088.147,1434.557 L1073.756,1434.557 L1073.756,1448.874 Z M1009,1456.033 L1152.903,1456.033 L1152.903,1184 L1009,1184 L1009,1456.033 Z" id="Page-1"></path>
        </g>
    </g>
</svg>