<?xml version="1.0" standalone="no"?>
<!DOCTYPE svg PUBLIC "-//W3C//DTD SVG 20010904//EN"
 "http://www.w3.org/TR/2001/REC-SVG-20010904/DTD/svg10.dtd">
<svg version="1.0" xmlns="http://www.w3.org/2000/svg"
 width="386.000000pt" height="130.000000pt" viewBox="0 0 386.000000 130.000000"
 preserveAspectRatio="xMidYMid meet">

<g transform="translate(0.000000,130.000000) scale(0.100000,-0.100000)"
fill="#000000" stroke="none">
<path d="M1871 1030 l-83 -170 96 -103 c53 -56 125 -130 160 -164 l63 -63
-121 0 -121 0 -80 80 -80 80 -111 -220 c-60 -121 -107 -219 -104 -218 3 2 38
20 77 41 l73 37 1110 0 1110 0 0 435 0 435 -953 0 -953 0 -83 -170z m1519 -91
c39 -8 50 -15 46 -26 -4 -8 -9 -25 -12 -38 -5 -21 -9 -23 -31 -14 -37 14 -90
11 -107 -7 -30 -29 -19 -43 66 -84 81 -38 98 -59 98 -123 0 -40 -5 -54 -28
-77 -37 -36 -101 -54 -168 -45 -70 8 -84 21 -72 63 7 26 13 32 26 27 9 -3 38
-9 63 -12 52 -6 89 9 89 36 0 24 -24 43 -92 74 -145 65 -106 222 59 236 7 1
35 -4 63 -10z m357 -6 c11 -4 13 -15 8 -42 -8 -45 -9 -45 -33 -32 -47 25 -122
7 -122 -30 0 -15 15 -27 58 -46 82 -37 122 -77 122 -124 0 -90 -55 -134 -165
-133 -38 0 -80 6 -92 12 -19 10 -20 16 -13 43 5 18 11 33 12 34 2 2 26 -2 54
-8 61 -12 100 -4 109 24 9 28 -9 46 -80 78 -73 33 -95 60 -95 116 0 62 32 98
105 116 29 8 103 3 132 -8z m-1377 -9 c48 -19 70 -55 70 -113 0 -83 -45 -125
-143 -137 l-57 -7 0 -68 0 -69 -45 0 -45 0 0 198 c0 109 3 202 7 205 14 14
172 7 213 -9z m353 2 c62 -26 87 -82 63 -140 -8 -18 -24 -41 -37 -50 -22 -15
-22 -18 -7 -27 15 -9 34 -55 57 -141 l9 -38 -47 0 -48 0 -18 63 c-20 74 -38
97 -77 97 l-28 0 0 -80 0 -80 -45 0 -45 0 0 198 c0 109 3 202 7 205 12 13 183
7 216 -7z m395 -23 l-3 -38 -77 -3 -78 -3 0 -39 0 -39 73 -3 72 -3 3 -37 3
-38 -74 0 -75 0 -4 -46 c-2 -25 -1 -47 1 -50 2 -2 40 -4 83 -4 l78 0 0 -35 0
-35 -130 0 -130 0 0 205 0 205 131 0 130 0 -3 -37z"/>
<path d="M2242 808 l3 -63 35 3 c43 3 70 27 70 62 0 37 -29 60 -74 60 l-37 0
3 -62z"/>
<path d="M2590 815 l0 -55 39 0 c47 0 71 20 71 60 0 35 -23 50 -74 50 l-36 0
0 -55z"/>
<path d="M470 1061 c-6 -12 -10 -120 -10 -281 0 -161 4 -269 10 -281 10 -17
22 -19 153 -19 78 0 148 4 155 9 11 7 13 65 12 291 0 156 -3 287 -6 292 -3 4
-72 8 -154 8 -137 0 -150 -2 -160 -19z m173 -18 c-7 -2 -21 -2 -30 0 -10 3 -4
5 12 5 17 0 24 -2 18 -5z m-25 -81 c3 -18 -1 -22 -22 -22 -19 0 -26 5 -26 18
0 39 43 43 48 4z m-68 -2 c0 -13 -7 -20 -20 -20 -13 0 -20 7 -20 20 0 13 7 20
20 20 13 0 20 -7 20 -20z m140 0 c0 -15 -7 -20 -25 -20 -18 0 -25 5 -25 20 0
15 7 20 25 20 18 0 25 -5 25 -20z m60 0 c0 -14 -7 -20 -23 -20 -16 0 -23 6
-23 20 0 14 7 20 23 20 16 0 23 -6 23 -20z m-197 -60 c4 -16 0 -20 -19 -20
-17 0 -24 6 -24 20 0 13 7 20 19 20 10 0 21 -9 24 -20z m67 0 c0 -14 -7 -20
-23 -20 -16 0 -23 6 -23 20 0 14 7 20 23 20 16 0 23 -6 23 -20z m130 0 c0 -14
-7 -20 -23 -20 -16 0 -23 6 -23 20 0 14 7 20 23 20 16 0 23 -6 23 -20z m-130
-60 c0 -15 -7 -20 -25 -20 -18 0 -25 5 -25 20 0 15 7 20 25 20 18 0 25 -5 25
-20z m70 1 c0 -20 -25 -35 -41 -25 -5 3 -9 14 -9 25 0 14 7 19 25 19 18 0 25
-5 25 -19z m60 0 c0 -10 -9 -21 -19 -24 -24 -6 -31 0 -31 25 0 13 7 18 25 18
18 0 25 -5 25 -19z m-192 -63 c-2 -15 -11 -24 -25 -26 -19 -3 -23 1 -23 22 0
21 5 26 26 26 21 0 25 -4 22 -22z m62 2 c0 -15 -7 -20 -25 -20 -18 0 -25 5
-25 20 0 15 7 20 25 20 18 0 25 -5 25 -20z m60 0 c0 -13 -7 -20 -20 -20 -13 0
-20 7 -20 20 0 13 7 20 20 20 13 0 20 -7 20 -20z m-122 -182 c-2 -15 -11 -24
-25 -26 -19 -3 -23 1 -23 22 0 21 5 26 26 26 21 0 25 -4 22 -22z m122 -3 c0
-18 -5 -25 -20 -25 -15 0 -20 7 -20 25 0 18 5 25 20 25 15 0 20 -7 20 -25z
m70 -1 c0 -21 -4 -25 -22 -22 -35 5 -33 48 3 48 14 0 19 -7 19 -26z m-90 -74
c0 -5 -16 -10 -35 -10 -19 0 -35 5 -35 10 0 6 16 10 35 10 19 0 35 -4 35 -10z"/>
<path d="M138 1013 c46 -2 118 -2 160 0 42 1 5 3 -83 3 -88 0 -123 -2 -77 -3z"/>
<path d="M1020 735 l0 -205 130 0 130 0 0 35 0 35 -85 0 -85 0 0 50 0 50 75 0
75 0 0 40 0 40 -75 0 -75 0 0 40 0 40 80 0 80 0 0 40 0 40 -125 0 -125 0 0
-205z"/>
<path d="M83 863 c37 -2 96 -2 130 0 34 2 4 3 -68 3 -72 0 -99 -1 -62 -3z"/>
<path d="M193 703 c42 -2 112 -2 155 0 42 1 7 3 -78 3 -85 0 -120 -2 -77 -3z"/>
<path d="M40 550 c0 -6 49 -10 126 -10 81 0 123 4 119 10 -4 6 -57 10 -126 10
-73 0 -119 -4 -119 -10z"/>
<path d="M2050 127 l0 -84 39 -1 c47 -2 71 17 71 57 0 46 -50 77 -78 49 -9 -9
-12 -4 -12 25 0 20 -4 37 -10 37 -6 0 -10 -34 -10 -83z m84 -3 c11 -28 6 -53
-12 -63 -38 -20 -72 35 -40 67 17 17 45 15 52 -4z"/>
<path d="M2310 125 c0 -50 4 -85 10 -85 6 0 10 35 10 85 0 50 -4 85 -10 85 -6
0 -10 -35 -10 -85z"/>
<path d="M2652 194 c-31 -22 -25 -55 13 -73 55 -26 55 -61 -1 -61 -19 0 -34
-4 -34 -10 0 -16 67 -12 84 6 29 28 16 50 -50 90 -17 10 -17 13 -5 28 10 11
22 15 38 11 26 -6 32 9 7 19 -23 9 -27 8 -52 -10z"/>
<path d="M2950 125 c0 -70 3 -85 15 -85 13 0 16 14 14 85 -1 65 -5 85 -15 85
-11 0 -14 -20 -14 -85z"/>
<path d="M1658 123 c-3 -43 -4 -80 -2 -82 9 -10 14 9 21 69 l6 63 20 -67 c11
-36 25 -65 30 -63 6 2 20 30 33 63 l22 59 7 -63 c4 -34 12 -62 18 -62 6 0 7
20 3 53 -3 28 -6 64 -6 80 0 49 -27 31 -51 -33 -12 -33 -23 -59 -25 -57 -2 2
-12 28 -23 58 -28 83 -47 77 -53 -18z"/>
<path d="M2220 190 c0 -5 5 -10 10 -10 6 0 10 5 10 10 0 6 -4 10 -10 10 -5 0
-10 -4 -10 -10z"/>
<path d="M3320 190 c0 -5 5 -10 10 -10 6 0 10 5 10 10 0 6 -4 10 -10 10 -5 0
-10 -4 -10 -10z"/>
<path d="M3215 180 c-3 -5 -3 -10 2 -10 4 0 1 -5 -7 -11 -11 -7 -12 -12 -3
-15 7 -3 9 -12 6 -20 -3 -8 -2 -30 1 -49 6 -30 11 -35 34 -35 23 1 25 2 11 13
-9 7 -18 29 -21 50 -3 31 -1 37 14 37 10 0 18 5 18 10 0 6 -9 10 -20 10 -13 0
-18 5 -14 15 7 17 -11 21 -21 5z"/>
<path d="M1897 142 c-20 -22 -22 -73 -5 -90 33 -33 98 0 98 50 0 50 -61 76
-93 40z m63 -17 c27 -33 -15 -90 -46 -64 -14 12 -19 60 -7 72 11 12 40 8 53
-8z"/>
<path d="M2220 100 c0 -33 4 -60 10 -60 6 0 10 27 10 60 0 33 -4 60 -10 60 -6
0 -10 -27 -10 -60z"/>
<path d="M2407 142 c-21 -23 -22 -66 -1 -86 18 -18 74 -22 74 -5 0 6 -7 8 -16
5 -20 -8 -54 11 -54 29 0 11 12 15 40 15 32 0 40 4 40 18 0 41 -54 57 -83 24z
m61 -19 c2 -9 -7 -13 -27 -13 -30 0 -39 9 -24 24 11 10 46 3 51 -11z"/>
<path d="M2800 140 c-24 -24 -25 -48 -4 -78 18 -26 65 -30 84 -6 20 23 16 75
-5 90 -26 19 -52 17 -75 -6z m68 -36 c5 -55 -51 -71 -64 -18 -8 30 12 56 40
52 15 -2 22 -11 24 -34z"/>
<path d="M3040 119 c0 -63 14 -80 60 -77 l40 3 0 58 c0 69 -18 77 -22 10 -2
-37 -7 -49 -22 -51 -24 -5 -36 14 -36 61 0 20 -4 37 -10 37 -5 0 -10 -18 -10
-41z"/>
<path d="M3320 100 c0 -33 4 -60 10 -60 6 0 10 27 10 60 0 33 -4 60 -10 60 -6
0 -10 -27 -10 -60z"/>
<path d="M3429 150 c-47 -27 -24 -110 31 -110 53 0 78 62 40 100 -22 22 -46
25 -71 10z m61 -31 c9 -16 8 -26 -5 -45 -18 -28 -32 -28 -51 2 -16 25 -1 64
25 64 11 0 25 -9 31 -21z"/>
<path d="M3580 103 c0 -73 17 -85 22 -16 2 37 7 49 22 51 24 5 36 -14 36 -60
0 -21 5 -38 10 -38 13 0 13 76 0 101 -12 21 -54 26 -66 8 -4 -8 -9 -7 -15 2
-5 9 -9 -10 -9 -48z"/>
<path d="M3753 153 c-22 -8 -14 -40 14 -61 32 -23 23 -45 -15 -36 -21 5 -24 4
-16 -5 6 -7 24 -11 40 -9 23 2 29 8 29 28 0 16 -8 28 -22 35 -31 13 -29 35 3
35 14 0 23 4 19 10 -6 10 -31 12 -52 3z"/>
</g>
</svg>
