<?xml version="1.0" encoding="UTF-8" standalone="no"?>
<svg width="250px" height="320px" viewBox="0 0 250 320" version="1.1" xmlns="http://www.w3.org/2000/svg" xmlns:xlink="http://www.w3.org/1999/xlink">
    <!-- Generator: Sketch 39.1 (31720) - http://www.bohemiancoding.com/sketch -->
    <title>Page 1</title>
    <desc>Created with Sketch.</desc>
    <defs></defs>
    <g id="Page-1" stroke="none" stroke-width="1" fill="none" fill-rule="evenodd">
        <g id="Desktop-HD" transform="translate(-642.000000, -1145.000000)" fill="#BEBBC8">
            <path d="M664.432,1442.502 L869.33,1442.502 L869.33,1167.502 L664.432,1167.502 L664.432,1442.502 Z M766.892,1461.887 C762.332,1461.887 758.634,1458.166 758.634,1453.575 C758.634,1448.985 762.332,1445.264 766.892,1445.264 C771.452,1445.264 775.149,1448.985 775.149,1453.575 C775.149,1458.166 771.452,1461.887 766.892,1461.887 L766.892,1461.887 Z M880.43,1145 L653.354,1145 C647.083,1145 642,1150.117 642,1156.428 L642,1453.575 C642,1459.887 647.083,1465.003 653.354,1465.003 L880.43,1465.003 C886.701,1465.003 891.784,1459.887 891.784,1453.575 L891.784,1156.428 C891.784,1150.117 886.701,1145 880.43,1145 L880.43,1145 Z" id="Page-1"></path>
        </g>
    </g>
</svg>