<?xml version="1.0" encoding="UTF-8" standalone="no"?>
<svg width="428px" height="248px" viewBox="0 0 428 248" version="1.1" xmlns="http://www.w3.org/2000/svg" xmlns:xlink="http://www.w3.org/1999/xlink">
    <!-- Generator: Sketch 39.1 (31720) - http://www.bohemiancoding.com/sketch -->
    <title>Page 1</title>
    <desc>Created with Sketch.</desc>
    <defs></defs>
    <g id="Page-1" stroke="none" stroke-width="1" fill="none" fill-rule="evenodd">
        <g id="Desktop-HD" transform="translate(-493.000000, -1183.000000)" fill="#BEBBC8">
            <path d="M557.661,1394.034 L855.875,1394.034 L855.875,1202.362 L557.661,1202.362 L557.661,1394.034 Z M706.286,1189.776 C706.286,1189.776 709.181,1189.776 709.181,1192.68 C709.181,1195.585 706.286,1195.585 706.286,1195.585 C706.286,1195.585 703.391,1195.585 703.391,1192.68 C703.391,1189.776 706.286,1189.776 706.286,1189.776 L706.286,1189.776 Z M875.178,1408.555 L875.178,1192.68 C875.178,1192.68 875.178,1183 865.527,1183 L548.011,1183 C548.011,1183 538.359,1183 538.359,1192.68 L538.359,1408.555 L493,1408.555 L493,1421.139 C493,1421.139 493,1430.819 502.651,1430.819 L910.886,1430.819 C920.537,1430.819 920.537,1421.139 920.537,1421.139 L920.537,1408.555 L875.178,1408.555 Z" id="Page-1"></path>
        </g>
    </g>
</svg>