<?xml version="1.0" encoding="UTF-8" standalone="no"?>
<svg width="350px" height="269px" viewBox="0 0 350 269" version="1.1" xmlns="http://www.w3.org/2000/svg" xmlns:xlink="http://www.w3.org/1999/xlink">
    <!-- Generator: Sketch 39.1 (31720) - http://www.bohemiancoding.com/sketch -->
    <title>Page 1</title>
    <desc>Created with Sketch.</desc>
    <defs></defs>
    <g id="Page-1" stroke="none" stroke-width="1" fill="none" fill-rule="evenodd">
        <g id="Desktop-HD" transform="translate(-86.000000, -1172.000000)" fill="#BEBBC8">
            <path d="M98.537,1371.648 L423.463,1371.648 L423.463,1184.609 L98.537,1184.609 L98.537,1371.648 Z M428.687,1172 L93.313,1172 C93.313,1172 86,1172 86,1179.355 L86,1376.902 C86,1384.257 93.313,1384.257 93.313,1384.257 L219.731,1384.257 C219.731,1384.257 217.642,1416.832 216.597,1418.934 C215.552,1421.035 212.418,1429.441 207.194,1431.542 C201.97,1433.644 200.925,1437.848 200.925,1437.848 C200.925,1441 207.194,1441 207.194,1441 L314.806,1441 C314.806,1441 321.075,1441 321.075,1437.848 C321.075,1437.848 320.03,1433.644 314.806,1431.542 C309.582,1429.441 306.447,1421.035 305.403,1418.934 C304.358,1416.832 302.269,1384.257 302.269,1384.257 L428.687,1384.257 C428.687,1384.257 436,1384.257 436,1376.902 L436,1179.355 C436,1179.355 436,1172 428.687,1172 L428.687,1172 Z" id="Page-1"></path>
        </g>
    </g>
</svg>