<?xml version="1.0" encoding="UTF-8" standalone="no"?>
<svg width="130px" height="277px" viewBox="0 0 130 277" version="1.1" xmlns="http://www.w3.org/2000/svg" xmlns:xlink="http://www.w3.org/1999/xlink">
    <!-- Generator: Sketch 39.1 (31720) - http://www.bohemiancoding.com/sketch -->
    <title>Page 1</title>
    <desc>Created with Sketch.</desc>
    <defs/>
    <g id="Page-1" stroke="none" stroke-width="1" fill="none" fill-rule="evenodd">
        <g id="Desktop-HD" transform="translate(-687.000000, -1179.000000)" fill="#BEBBC8">
            <path d="M694.63,1417.263 L809.073,1417.263 L809.073,1217.43 L694.63,1217.43 L694.63,1417.263 Z M751.852,1448.006 C745.529,1448.006 740.407,1442.846 740.407,1436.477 C740.407,1430.108 745.529,1424.948 751.852,1424.948 C758.173,1424.948 763.296,1430.108 763.296,1436.477 C763.296,1442.846 758.173,1448.006 751.852,1448.006 L751.852,1448.006 Z M740.407,1202.058 L763.296,1202.058 C765.4,1202.058 767.11,1203.78 767.11,1205.901 C767.11,1208.026 765.4,1209.745 763.296,1209.745 L740.407,1209.745 C738.298,1209.745 736.592,1208.026 736.592,1205.901 C736.592,1203.78 738.298,1202.058 740.407,1202.058 L740.407,1202.058 Z M751.852,1186.686 C753.956,1186.686 755.666,1188.409 755.666,1190.528 C755.666,1192.654 753.956,1194.372 751.852,1194.372 C749.742,1194.372 748.036,1192.654 748.036,1190.528 C748.036,1188.409 749.742,1186.686 751.852,1186.686 L751.852,1186.686 Z M791.679,1179 L712.023,1179 C698.262,1179 687,1190.346 687,1204.208 L687,1430.484 C687,1444.347 698.262,1455.692 712.023,1455.692 L791.679,1455.692 C805.44,1455.692 816.702,1444.347 816.702,1430.484 L816.702,1204.208 C816.702,1190.346 805.44,1179 791.679,1179 L791.679,1179 Z" id="Page-1"/>
        </g>
    </g>
</svg>