<?xml version="1.0" encoding="UTF-8" standalone="no"?>
<svg width="223px" height="368px" viewBox="0 0 223 368" version="1.1" xmlns="http://www.w3.org/2000/svg" xmlns:xlink="http://www.w3.org/1999/xlink">
    <!-- Generator: Sketch 39.1 (31720) - http://www.bohemiancoding.com/sketch -->
    <title>Page 1</title>
    <desc>Created with Sketch.</desc>
    <defs></defs>
    <g id="Page-1" stroke="none" stroke-width="1" fill="none" fill-rule="evenodd">
        <g id="Desktop-HD" transform="translate(-689.000000, -1117.000000)" fill="#BEBBC8">
            <path d="M713.735329,1427.75727 L886.882635,1427.75727 L886.882635,1157.88987 L713.735329,1157.88987 L713.735329,1427.75727 Z M787.941317,1444.11013 L812.676647,1444.11013 L812.676647,1435.9326 L787.941317,1435.9326 L787.941317,1444.11013 Z M800.30788,1133.35507 C802.584192,1133.35507 804.430802,1135.18846 804.430802,1137.44493 C804.430802,1139.70582 802.584192,1141.5348 800.30788,1141.5348 C798.029365,1141.5348 796.187162,1139.70582 796.187162,1137.44493 C796.187162,1135.18846 798.029365,1133.35507 800.30788,1133.35507 L800.30788,1133.35507 Z M886.882635,1117 L713.735329,1117 C700.130347,1117 689,1128.04 689,1141.5348 L689,1460.4674 C689,1473.96 700.130347,1485 713.735329,1485 L886.882635,1485 C900.485413,1485 911.61576,1473.96 911.61576,1460.4674 L911.61576,1141.5348 C911.61576,1128.04 900.485413,1117 886.882635,1117 L886.882635,1117 Z" id="Page-1"></path>
        </g>
    </g>
</svg>